# xmcd
# 
# Track frame offsets:
#     225
#     22697
#     53947
#     82151
#     114853
#     150574
#     181075
#     208954
#     235890
# 
# Disc length: 3524
# 
# Revision: 5
# Processed by: cddbd v1.5.2PL0 Copyright (c) Steve Scherf et al.
# Submitted via: fre:ac v1.0.17
# 
DISCID=6a0dc109
DTITLE=Sampler - Country Hitmix
DYEAR=0
DGENRE=Country
TTITLE0=United Cowboys, Gudrun Lang and Katus , Willie Nelson, Don Gibson - Mix1 - Let's Go Nashville, Lone Star State Of Mine, On The Road Again, Oh Lonesome Me
TTITLE1=United Cowboys. Kenny Rogers, Dave Dudley, Gudrun Lange and Kaktus - Mix2 - Let's  Go Nashville, Ruby Don't Take Your Love To Town, Six Days On The Road, Ruben James, Me And Bobby McGee
TTITLE2=United Cowboys, Honky Tonk Heroes, Susan Raye, Johnny Cash, Merle Haggard - Mix3 - Let's Go Nashville, Talk To Me, L..A. International Airport, Folsom Prison Blues, The Fighting Side Of Me
TTITLE3=United Cowboys, Dave Dudley, Johnny Cash, Donna Fargo, Carl Perkins - Mix4 - Let's Go Nashville, Last Days In The Mine, Ring Of Fire, Sticks And Stones, Daddy Sang Bass
TTITLE4=United Cowboys, Charley Pride, Honky Tonk Heroes, Frankie Lane, Billie Joe Spears - Mix5 - Let's Go Nashville, Oklahoma Morning, Southern State Of Dixie, Rawhide, Blanket On The Ground
TTITLE5=United Cowboys, Johnny Cash, Sunny's Saloon, Nashville Singers, Billy Bun - Mix6 - Let's Go Nashville, I Walk The Line, Gountry Guitar Nr. 1, Thats Summer, She's Not The Cheatin' Kind
TTITLE6=United Cowboys, Johnny Cash, Nashville Singers, Nev Nicholls, Billy Gun - Mix7 - Let's Go Nashville, A Boy Named Sue, Holdin' Heaven, One More Chance, Chattahoochee
TTITLE7=United Cowboys, Nashville Singers, Roy Alabama - Mix8 - Let's Go Nashville, I Don't Call Him Daddy, Look Heart No Hands, Forever And Ever Amen
TTITLE8=United Cowboys, Gudrun Lange and Kaktus, Billy Gun - Mix9 - Let's Go Nashville, I'm Moving On, No One Else On Earth, Love's Gonna Live Here, Let's Go Nashville
EXTD=
EXTT0=
EXTT1=
EXTT2=
EXTT3=
EXTT4=
EXTT5=
EXTT6=
EXTT7=
EXTT8=
PLAYORDER=
